<?xml version="1.0" encoding="utf-8"?>
<!-- Generator: Adobe Illustrator 24.2.0, SVG Export Plug-In . SVG Version: 6.00 Build 0)  -->
<svg version="1.1" id="Layer_1" xmlns="http://www.w3.org/2000/svg" xmlns:xlink="http://www.w3.org/1999/xlink" x="0px" y="0px"
	 viewBox="0 0 512 512" style="enable-background:new 0 0 512 512;" xml:space="preserve">
<style type="text/css">
	.st0{fill:#48AD37;}
</style>
<g>
	<g>
		<path class="st0" d="M31,253.5c0.2-7.8,3.8-16.3,10.9-23.2c7-6.8,15.5-10.2,25.4-10c20.1,0.3,35.8,17.1,35.1,37
			c-0.7,19.9-17.3,34.8-36.3,34.4C45.7,291.3,30.7,274.4,31,253.5z M43.5,237.5c0-0.3,0-0.5,0-0.8c-0.1-0.4-0.2-0.5-0.6-0.4
			c-0.7,0.2-1.2,0.7-1.5,1.2c-0.7,1-1.5,2-2,3.1c-1.7,3.1-2.9,6.2-3.5,9.7c-0.1,0.9-0.4,1.7-0.3,2.7c0.1,0.4,0.1,0.9,0.4,1.3
			c0.1,0.2,0.4,0.4,0.7,0.3c0.3-0.1,0.6-0.1,0.7-0.5c0.5-1.5,1.1-2.9,1.6-4.4c0.4-0.9,0.7-2,1.1-2.9c0.1-0.5,0.5-0.7,0.9-0.3
			c0.1,0.1,0.4,0.3,0.5,0.4c1,1.1,2,2.1,3,3.2c0.4,0.4,0.8,0.7,1.2,1.1c1.2,1.4,1.7,3,1.7,4.6c0.1,1.9-0.2,3.7-0.9,5.4
			c-1.6,4.4-3.2,8.7-4.7,13c-0.1,0.2-0.1,0.4,0.1,0.6c1.5,2,3.3,3.8,5.2,5.4c2.7,2.2,5.7,3.8,8.9,5.1c2,0.7,4.1,1.3,6.2,1.6
			c1,0.1,2.1,0.4,3.2,0.2c0.9-0.1,1.7-0.4,2.3-1.1c0.4-0.4,0.6-0.9,0.7-1.5c0.6-1.7,1.2-3.4,1.7-5.2c1.2-3.8,2.5-7.5,3.7-11.3
			c1.1-3.2,2.1-6.5,3.2-9.7c0.9-2.5,1.7-5.1,2.5-7.7c0.1-0.3,0.1-0.6,0.1-0.9c0-0.4-0.2-0.7-0.7-0.6c-0.6,0.1-1.1,0.4-1.6,0.7
			c-2.6,1.6-5.2,3.2-7.8,4.8c-1.8,1.2-3.6,2.3-5.5,3.3c-1.5,0.9-3.3,0.6-4.4-0.7c-0.1-0.1-0.3-0.4-0.4-0.5c-1.8-2-3.7-4.1-5.5-6
			c-1.7-1.9-3.5-3.8-5.2-5.7c-1.1-1.2-2.2-2.4-3.2-3.6C44.1,240.6,43.5,239.1,43.5,237.5z M67,244.5c0.7,0,1.2-0.1,1.7-0.4
			c0.9-0.6,1.7-1.1,2.7-1.7c2.3-1.4,4.4-2.8,6.7-4.2c1.7-1,3.3-2.1,4.9-3.1c0.8-0.5,1.6-1,2.4-1.6c0.2-0.1,0.4-0.4,0.4-0.7
			c0.1-0.5-0.1-0.9-0.4-1.3c-0.4-0.7-1-1.2-1.7-1.6c-1.2-0.9-2.5-1.5-3.8-2.2c-3.9-1.8-8.1-2.8-12.3-3c-2.5-0.1-5,0.1-7.5,0.7
			c-2,0.4-4.1,1.1-6,1.9c-0.8,0.4-1.4,0.9-1.4,1.9c0,0.7,0.2,1.5,0.7,2c1.7,1.9,3.4,3.8,5.1,5.7c2,2.2,3.9,4.4,5.8,6.5
			C65.2,244,66,244.4,67,244.5z M98,255.7c0-1.2-0.1-2.6-0.3-4c-0.3-2.3-0.9-4.6-1.7-6.8c-0.1-0.4-0.4-0.8-0.7-1.1
			c-0.5-0.4-1-0.4-1.5,0s-0.8,0.8-1,1.4c-0.9,2.7-1.8,5.4-2.7,8.1c-0.9,2.8-1.9,5.6-2.8,8.4c-0.9,2.8-1.8,5.5-2.8,8.3
			c-1.1,3.3-2.2,6.6-3.3,10c-0.1,0.5-0.4,1-0.4,1.5c-0.1,0.7,0.3,1.1,0.9,1.1c0.3,0,0.7,0,0.9-0.1c0.6-0.1,1.2-0.2,1.7-0.6
			c2.9-2,5.4-4.4,7.5-7.2c2-2.6,3.5-5.4,4.5-8.5C97.5,262.9,98,259.4,98,255.7z"/>
		<g>
			<path class="st0" d="M149.3,276.7c-1.4,0-2.6-0.3-3.8-0.9s-2-1.5-2.7-2.7l-11.5-24.4c-0.1-0.3-0.4-0.4-0.7-0.4
				c-0.2,0-0.4,0.1-0.7,0.3c-0.2,0.1-0.3,0.4-0.3,0.8v26.6h-9.8v-28.5c0-2.2,0.3-4,0.9-5.4c0.7-1.4,1.5-2.6,2.6-3.5
				c0.9-0.7,1.9-1.2,3-1.7s2.3-0.7,3.7-0.7c2.4,0,4.4,0.7,5.9,2c1.5,1.3,2.8,3.1,3.8,5.2l8.6,19c0.2,0.5,0.5,0.7,0.9,0.7
				s0.8-0.2,0.9-0.7l8.6-19.2c0.9-2.2,2.3-3.8,3.7-5.2c1.5-1.3,3.5-2,6-2c1.4,0,2.6,0.2,3.7,0.7c1.1,0.4,2.1,1,3,1.7
				c1.2,0.9,2,2.1,2.6,3.5c0.7,1.4,0.9,3.2,0.9,5.4v28.4h-9.8v-26.4c0-0.4-0.1-0.6-0.3-0.8c-0.2-0.1-0.4-0.3-0.7-0.3
				c-0.4,0-0.7,0.1-0.7,0.4L155.7,273c-0.6,1.2-1.5,2.1-2.7,2.7C151.9,276.4,150.6,276.7,149.3,276.7z"/>
			<path class="st0" d="M293,237.1c-0.4,0.4-0.7,0.9-1.2,1.2l-14.4,16.8l16.6,19.5c0.2,0.2,0.4,0.4,0.5,0.6s0.3,0.4,0.4,0.6h-14.9
				c-0.3-0.4-0.6-0.8-0.9-1.2l-12.3-12.9L254,274.7c-0.2,0.2-0.4,0.4-0.5,0.6c-0.1,0.2-0.4,0.4-0.5,0.6h-13.7
				c0.1-0.2,0.3-0.4,0.4-0.6c0.1-0.1,0.4-0.4,0.6-0.6l17.1-19.5l-14.3-16.8c-0.4-0.4-0.8-0.8-1.1-1.2h14.5c0.3,0.4,0.6,0.9,0.9,1.2
				l10.2,10.5l10.8-10.5c0.2-0.2,0.4-0.4,0.6-0.7s0.4-0.4,0.5-0.7H293z"/>
			<path class="st0" d="M481,268.3c0,1.5-0.2,2.7-0.7,3.8c-0.4,1-1.1,1.9-1.8,2.6c-0.7,0.7-1.6,1.2-2.6,1.5c-1,0.3-2,0.5-3.1,0.5
				c-1.8,0-3.5-0.2-4.9-0.7c-1.4-0.5-2.6-1.2-3.6-2.3l-24-24.6c-0.4-0.4-0.7-0.5-1-0.5c-0.3,0-0.6,0.1-0.8,0.3
				c-0.2,0.2-0.3,0.4-0.3,0.8v26.3h-11.5v-30.7c0-1.7,0.2-3.1,0.7-4.2s1.2-2.1,2.1-2.8c0.9-0.7,2-1.2,3.2-1.6
				c1.2-0.3,2.6-0.5,4.1-0.5c2,0,3.8,0.3,5.2,0.9c1.5,0.6,2.8,1.6,4.2,3l21.3,22.7c0.1,0.2,0.4,0.3,0.5,0.4c0.1,0.1,0.4,0.1,0.6,0.1
				c0.6,0,0.9-0.4,0.9-1v-25h11.4L481,268.3L481,268.3z"/>
			<path class="st0" d="M410.5,237.1v25.3c0,2.4-1.2,3.6-3.7,3.6h-5.4H397h-8.1H384h-5.1c-2.5,0-3.7-1.2-3.7-3.6v-25.3h-10.5v26.4
				c0,2.2,0.2,4.1,0.7,5.6c0.5,1.5,1.3,2.8,2.4,3.8s2.5,1.7,4.2,2.3c1.7,0.5,3.8,0.7,6.2,0.7h5.7h4.7h8.1h4.4h6
				c2.5,0,4.5-0.2,6.2-0.7c1.7-0.5,3.1-1.2,4.2-2.3c1.1-1,1.9-2.3,2.4-3.8c0.5-1.5,0.7-3.4,0.7-5.6v-26.4H410.5z"/>
			<path class="st0" d="M357.5,259.9c-0.6-1.4-1.4-2.6-2.5-3.7c-1-1.1-2.3-1.9-3.8-2.5c-1.5-0.7-3.3-0.9-5.5-0.9h-9.2h-21.9
				c-0.6,0-1.1-0.1-1.4-0.1c-0.3-0.1-0.6-0.2-0.8-0.4c-0.7-0.5-0.9-1.2-0.9-2s0.3-1.5,0.8-2c0.2-0.2,0.5-0.4,0.9-0.5
				c0.4-0.1,0.9-0.2,1.5-0.2h21.9h20v-10.2h-20H314c-2.6,0-4.7,0.3-6.2,0.9c-1.6,0.7-2.9,1.5-3.9,2.5s-1.8,2.3-2.5,3.7
				c-0.6,1.4-0.9,2.8-0.9,4.4c0,1.6,0.3,3.1,0.9,4.4c0.6,1.4,1.4,2.5,2.4,3.6c1,1.1,2.3,1.9,3.9,2.5c1.6,0.7,3.7,0.9,6.2,0.9h22.5
				h7.4c0.8,0,1.4,0.1,1.7,0.2c0.4,0.1,0.7,0.4,1,0.7c0.5,0.5,0.8,1.2,0.8,2c0,0.7-0.2,1.3-0.7,1.7c-0.3,0.3-0.7,0.5-1.1,0.7
				c-0.4,0.1-1.1,0.3-1.9,0.3h-7.4h-34.9v10h34.9h9.2c2.3,0,4.2-0.4,5.8-1.1s2.9-1.7,4-2.9c0.9-1,1.6-2.2,2.1-3.5
				c0.5-1.3,0.8-2.7,0.8-4.1C358.4,262.7,358.1,261.3,357.5,259.9z"/>
			<path class="st0" d="M234.8,275c-0.1-0.3-0.2-0.6-0.4-0.9l-14-30.7c-1.1-2.4-2.5-4.2-4.4-5.4s-4.1-1.7-6.8-1.7
				c-2.8,0-5.1,0.6-6.9,1.7s-3.3,3-4.4,5.4l-13.9,30.7c-0.1,0.3-0.3,0.6-0.4,0.9c-0.1,0.3-0.2,0.6-0.3,0.9h12
				c0.1-0.2,0.1-0.4,0.1-0.7c0.1-0.2,0.1-0.4,0.2-0.7l1-2.3l0,0l1-2.3l0,0l2.4-5.3h18.4l3.2,7.3l1.2,2.6c0.1,0.2,0.1,0.4,0.2,0.6
				c0.1,0.2,0.1,0.4,0.2,0.7h11.7C235,275.5,235,275.2,234.8,275z M208.4,246.4c0.3-0.1,0.7-0.3,0.9-0.3c0.4,0,0.7,0.1,1,0.3
				c0.3,0.2,0.6,0.5,0.7,0.9l3.7,8.7h-11l3.7-8.7C207.8,247,208.1,246.6,208.4,246.4z"/>
		</g>
	</g>
</g>
</svg>
